<svg width="18" height="19" viewBox="0 0 18 19" fill="none" xmlns="http://www.w3.org/2000/svg">
<path fill-rule="evenodd" clip-rule="evenodd" d="M17.4808 2.77837C17.6385 2.77837 17.7877 2.85214 17.8862 2.97888C17.9848 3.10565 18.022 3.2716 17.9873 3.42999L16.4297 10.5545C16.3764 10.7983 16.166 10.9715 15.9231 10.9715H5.49889L5.89826 12.7526H15.8884C16.1752 12.7526 16.4077 12.9918 16.4077 13.287C16.4077 13.582 16.1752 13.8213 15.8884 13.8213H5.48518C5.24341 13.8213 5.0336 13.6495 4.97925 13.4071L2.35617 1.70968H0.519222C0.232488 1.70968 0 1.47047 0 1.17535C0 0.880243 0.232488 0.640991 0.519222 0.640991H2.76922C3.01099 0.640991 3.22077 0.812733 3.27515 1.05517L3.66159 2.77837H17.4808ZM5.25923 9.90283H15.5077L16.8317 3.84705H3.90125L5.25923 9.90283Z" fill="#443737"/>
<path fill-rule="evenodd" clip-rule="evenodd" d="M6 16.8629C6 15.7448 6.89722 14.8352 8 14.8352C9.10282 14.8352 10 15.7448 10 16.8629C10 17.9811 9.10278 18.8907 8 18.8907C6.89718 18.8907 6 17.9811 6 16.8629ZM7.09093 16.863C7.09093 17.3712 7.49873 17.7847 8 17.7847C8.50127 17.7847 8.90907 17.3712 8.90907 16.863C8.90907 16.3547 8.50127 15.9413 8 15.9413C7.49873 15.9413 7.09093 16.3547 7.09093 16.863Z" fill="#443737"/>
<path fill-rule="evenodd" clip-rule="evenodd" d="M12 16.8629C12 15.7448 12.8972 14.8352 14 14.8352C15.1028 14.8352 16 15.7448 16 16.8629C16 17.9811 15.1028 18.8907 14 18.8907C12.8972 18.8907 12 17.9811 12 16.8629ZM13.0909 16.863C13.0909 17.3712 13.4987 17.7847 14 17.7847C14.5013 17.7847 14.9091 17.3712 14.9091 16.863C14.9091 16.3547 14.5013 15.9413 14 15.9413C13.4987 15.9413 13.0909 16.3547 13.0909 16.863Z" fill="#443737"/>
</svg>
