<svg width="34" height="27" viewBox="0 0 34 27" fill="none" xmlns="http://www.w3.org/2000/svg">
<path d="M26.8125 15.5859L29.1992 5.02344C29.3516 4.26172 28.793 3.5 27.9805 3.5H8.07422L7.61719 1.26562C7.46484 0.707031 6.95703 0.25 6.39844 0.25H1.21875C0.507812 0.25 0 0.808594 0 1.46875V2.28125C0 2.99219 0.507812 3.5 1.21875 3.5H4.72266L8.32812 20.9688C7.46484 21.4766 6.90625 22.3906 6.90625 23.4062C6.90625 24.9805 8.17578 26.25 9.75 26.25C11.2734 26.25 12.5938 24.9805 12.5938 23.4062C12.5938 22.6445 12.2383 21.9336 11.7305 21.375H22.3438C21.8359 21.9336 21.5312 22.6445 21.5312 23.4062C21.5312 24.9805 22.8008 26.25 24.375 26.25C25.8984 26.25 27.2188 24.9805 27.2188 23.4062C27.2188 22.2891 26.5586 21.3242 25.5938 20.8672L25.8477 19.6484C26.0508 18.8867 25.4414 18.125 24.6797 18.125H11.0703L10.7148 16.5H25.5938C26.1523 16.5 26.6602 16.1445 26.8125 15.5859Z" fill="#FFC725"/>
<circle cx="25.5" cy="17.5" r="8.5" fill="#F37335"/>
<path d="M24.639 17.0135C24.847 16.9702 25.0463 16.9398 25.237 16.9225C25.4277 16.9008 25.6118 16.89 25.7895 16.89C26.2835 16.89 26.719 16.9637 27.096 17.111C27.473 17.2583 27.7893 17.462 28.045 17.722C28.3007 17.982 28.4935 18.2875 28.6235 18.6385C28.7535 18.9852 28.8185 19.36 28.8185 19.763C28.8185 20.2613 28.7297 20.7163 28.552 21.128C28.3787 21.5397 28.136 21.8928 27.824 22.1875C27.512 22.4778 27.1415 22.7032 26.7125 22.8635C26.2878 23.0238 25.8242 23.104 25.3215 23.104C25.0268 23.104 24.7473 23.0737 24.483 23.013C24.2187 22.9523 23.9695 22.8722 23.7355 22.7725C23.5058 22.6685 23.2913 22.5515 23.092 22.4215C22.897 22.2872 22.7215 22.1463 22.5655 21.999L23.0595 21.3165C23.1635 21.1692 23.3 21.0955 23.469 21.0955C23.5773 21.0955 23.6878 21.1302 23.8005 21.1995C23.9132 21.2688 24.041 21.3447 24.184 21.427C24.3313 21.5093 24.5025 21.5852 24.6975 21.6545C24.8968 21.7238 25.1352 21.7585 25.4125 21.7585C25.7072 21.7585 25.9672 21.7108 26.1925 21.6155C26.4178 21.5202 26.6042 21.388 26.7515 21.219C26.9032 21.0457 27.0158 20.842 27.0895 20.608C27.1675 20.3697 27.2065 20.1118 27.2065 19.8345C27.2065 19.3232 27.057 18.9245 26.758 18.6385C26.4633 18.3482 26.0257 18.203 25.445 18.203C24.9987 18.203 24.5415 18.2853 24.0735 18.45L23.0725 18.164L23.8525 13.601H28.4935V14.2835C28.4935 14.5132 28.422 14.6995 28.279 14.8425C28.136 14.9855 27.8933 15.057 27.551 15.057H24.9705L24.639 17.0135Z" fill="white"/>
</svg>
